<svg width="19" height="20" viewBox="0 0 19 20" fill="none" xmlns="http://www.w3.org/2000/svg">
                        <path fill-rule="evenodd" clip-rule="evenodd"
                            d="M9.5 0C4.25543 0 0 4.4794 0 10C0 15.5206 4.25543 20 9.5 20C14.7343 20 19 15.5206 19 10C19 4.4794 14.7343 0 9.5 0ZM15.7749 4.60954C16.9083 6.0629 17.5884 7.91758 17.609 9.92408C17.3411 9.86984 14.6621 9.29502 11.9626 9.65292C11.9008 9.51194 11.8492 9.36008 11.7874 9.20824C11.6226 8.7961 11.4371 8.3731 11.2516 7.9718C14.2397 6.69198 15.5998 4.84816 15.7749 4.60954ZM9.5 1.47505C11.5607 1.47505 13.4463 2.2885 14.8785 3.62256C14.7343 3.83948 13.5081 5.564 10.6231 6.70282C9.29393 4.13232 7.82049 2.0282 7.59382 1.70282C8.20173 1.55098 8.84057 1.47505 9.5 1.47505ZM6.04827 2.27766C6.26464 2.58134 7.70716 4.69632 9.05694 7.21258C5.26518 8.27548 1.91649 8.2538 1.55586 8.2538C2.08134 5.60738 3.78146 3.40564 6.04827 2.27766ZM1.38069 10.0108C1.38069 9.92408 1.38069 9.83732 1.38069 9.75054C1.73102 9.76138 5.66704 9.81562 9.71637 8.5358C9.95336 9.01302 10.1697 9.50108 10.3758 9.98916C10.2728 10.0217 10.1594 10.0542 10.0564 10.0868C5.87311 11.5076 3.64751 15.3905 3.46205 15.7158C2.17407 14.2082 1.38069 12.2017 1.38069 10.0108ZM9.5 18.5466C7.62474 18.5466 5.8937 17.8742 4.52331 16.7462C4.66758 16.4317 6.31617 13.0911 10.891 11.41C10.9116 11.3991 10.9219 11.3991 10.9425 11.3883C12.0862 14.5011 12.5499 17.115 12.6735 17.8633C11.6947 18.308 10.6231 18.5466 9.5 18.5466ZM14.0233 17.0824C13.9409 16.5618 13.5081 14.0672 12.4469 10.9978C14.9919 10.5748 17.2175 11.269 17.4957 11.3666C17.1453 13.7419 15.8471 15.7918 14.0233 17.0824Z"
                            fill="#444444" />
                    </svg>