<svg width="19" height="18" viewBox="0 0 19 18" fill="none" xmlns="http://www.w3.org/2000/svg">
                        <g clip-path="url(#clip0)">
                            <path fill-rule="evenodd" clip-rule="evenodd"
                                d="M9.5 4.77158e-06C7.24245 -0.00222441 5.05786 0.776681 3.33773 2.19714C1.6176 3.61759 0.47437 5.58674 0.112908 7.75171C-0.248554 9.91668 0.195382 12.136 1.36516 14.0118C2.53494 15.8877 4.3541 17.2975 6.49663 17.9887C6.97483 18.0737 7.14396 17.7847 7.14396 17.5411C7.14396 17.2975 7.14396 16.7422 7.14396 15.9717C4.49049 16.5326 3.93063 14.7309 3.93063 14.7309C3.7546 14.1725 3.38063 13.6927 2.87508 13.3768C2.0178 12.8102 2.94506 12.8102 2.94506 12.8102C3.24557 12.8514 3.53248 12.9586 3.78407 13.1235C4.03566 13.2884 4.24532 13.5068 4.39718 13.762C4.52621 13.9894 4.70018 14.1897 4.90909 14.3515C5.11801 14.5133 5.35776 14.6335 5.61459 14.7051C5.87142 14.7767 6.14028 14.7983 6.40573 14.7687C6.67118 14.7391 6.928 14.6588 7.16145 14.5326C7.19805 14.0665 7.40488 13.6284 7.74463 13.2975C5.63352 13.0652 3.41744 12.272 3.41744 8.76488C3.40294 7.84872 3.75164 6.96223 4.39135 6.28896C4.10644 5.49237 4.13974 4.6209 4.48466 3.84703C4.48466 3.84703 5.28361 3.59774 7.0973 4.79321C8.65473 4.37777 10.2986 4.37777 11.856 4.79321C13.6697 3.59774 14.4629 3.84703 14.4629 3.84703C14.8126 4.61271 14.8542 5.47793 14.5795 6.27196C15.2192 6.94523 15.5679 7.83172 15.5534 8.74788C15.5534 12.2946 13.3315 13.0708 11.2145 13.2805C11.4415 13.5021 11.6168 13.7686 11.7285 14.0619C11.8402 14.3552 11.8857 14.6683 11.8619 14.9802C11.8619 16.2153 11.8619 17.2125 11.8619 17.5128C11.8619 17.813 12.031 18.0453 12.515 17.9547C14.6332 17.2453 16.4251 15.8314 17.5742 13.9629C18.7233 12.0943 19.1557 9.89131 18.795 7.74306C18.4342 5.5948 17.3036 3.63953 15.6027 2.22268C13.9019 0.805834 11.7404 0.0185822 9.5 4.77158e-06V4.77158e-06Z"
                                fill="#191717" />
                        </g>
                        <defs>
                            <clipPath id="clip3">
                                <rect width="19" height="18" fill="white" />
                            </clipPath>
                        </defs>
                    </svg>