    <svg width="65" height="88" viewBox="0 0 40 54" fill="none" xmlns="http://www.w3.org/2000/svg">
                        <g clip-path="url(#clip0)">
                            <path d="M37.3753 51.3695H2.62468V2.64551H37.3753V51.3695Z" stroke="#231F20"
                                stroke-width="7" stroke-miterlimit="10" />
                            <path
                                d="M10.8736 43.4707C10.3712 43.3951 10.1237 43.2893 10.1237 43.1683V11.0737C10.1237 10.8016 11.0686 10.658 12.9584 10.658C13.6603 10.6471 14.362 10.6876 15.0581 10.7789C15.5455 10.8545 15.808 10.9528 15.808 11.0737V25.186C16.6677 24.3233 17.6542 23.5992 18.7327 23.0393C19.7342 22.4966 20.8503 22.2037 21.9872 22.1851C23.4734 22.1531 24.9411 22.521 26.2392 23.2509C27.4265 23.9254 28.4011 24.9236 29.0514 26.1308C29.7144 27.3864 30.0523 28.7903 30.0337 30.2126V43.1683C30.0337 43.448 29.0889 43.5841 27.1991 43.5841C26.5024 43.5953 25.8058 43.5574 25.1144 43.4707C24.6119 43.3951 24.3644 43.2893 24.3644 43.1683V31.3161C24.4151 30.232 24.053 29.1694 23.3521 28.3455C23.0282 27.9748 22.6269 27.6808 22.177 27.4848C21.7271 27.2888 21.2398 27.1955 20.7499 27.2117C18.9384 27.2622 17.1969 27.9281 15.808 29.1014V43.1683C15.808 43.448 14.8631 43.5841 12.9734 43.5841C12.2717 43.596 11.57 43.5581 10.8736 43.4707V43.4707Z"
                                fill="#231F20" />
                            <path
                                d="M25.3393 17.4533C25.3297 17.4187 25.3297 17.3821 25.3393 17.3475C25.3486 17.1243 25.3864 16.9033 25.4518 16.6899C25.5343 16.4253 25.6018 16.2893 25.6768 16.2893C26.0451 16.3949 26.4262 16.4484 26.8092 16.448C27.0892 16.4581 27.3674 16.3984 27.619 16.2742C27.8335 16.1732 28.0155 16.0134 28.144 15.8131C28.2589 15.6273 28.3187 15.4122 28.3165 15.1933C28.3221 15.048 28.293 14.9035 28.2317 14.772C28.1704 14.6405 28.0786 14.5257 27.964 14.4374C27.7174 14.2392 27.4094 14.1348 27.0941 14.1426H26.7941C26.7267 14.1426 26.6217 14.0065 26.4717 13.7495C26.3636 13.6095 26.2961 13.4421 26.2767 13.2658L27.5741 11.9279H25.6093C25.5493 11.9279 25.5193 11.754 25.5193 11.3987C25.5193 11.0435 25.5193 10.8696 25.6093 10.8696H28.8264C28.8264 10.8696 28.8639 10.915 28.8864 10.9906C28.902 11.1262 28.902 11.2631 28.8864 11.3987C28.8987 11.5464 28.8834 11.6951 28.8414 11.8372L28.7964 11.9279L27.5741 13.1146C27.9369 13.1316 28.2909 13.2325 28.6089 13.4094C28.9191 13.5721 29.1786 13.8179 29.3588 14.1199C29.5434 14.4383 29.6368 14.8019 29.6288 15.1706C29.6288 15.5977 29.5176 16.0173 29.3063 16.3875C29.0692 16.7772 28.7255 17.0896 28.3165 17.287C27.8107 17.5276 27.2557 17.6441 26.6967 17.6272C26.2385 17.6324 25.7817 17.5739 25.3393 17.4533V17.4533Z"
                                fill="#231F20" />
                        </g>
                        <defs>
                            <clipPath id="clip2">
                                <rect width="40" height="54" fill="white" />
                            </clipPath>
                        </defs>
                    </svg>