<svg width="18" height="18" viewBox="0 0 18 18" fill="none" xmlns="http://www.w3.org/2000/svg">
    <path fill-rule="evenodd" 
    clip-rule="evenodd"
    d="M9.03371 0C13.9551 0 18 4.04494 18 9.03371C18 13.9551 13.9551 18 9.03371 18C4.04494 18 0 13.9551 0 9.03371C0 4.04494 4.04494 0 9.03371 0ZM6 3.64045L7.48315 5.19101C7.82022 5.46067 7.82022 6 7.48315 6.33708L6.47191 7.34831C7.2809 8.83146 9.23595 10.7191 10.6517 11.5281L11.6629 10.5169C12 10.1798 12.5393 10.1798 12.8764 10.5169L14.3596 12.0674C14.6966 12.3371 14.6966 12.8764 14.3596 13.2135L13.3483 14.2247C10.9213 16.6517 1.41573 7.07865 3.77528 4.65169L4.78652 3.64045C5.1236 3.30337 5.66292 3.30337 6 3.64045Z"
    fill="black" />
</svg>